<!DOCTYPE svg PUBLIC "-//W3C//DTD SVG 1.1//EN" "http://www.w3.org/Graphics/SVG/1.1/DTD/svg11.dtd">
<!-- Uploaded to: SVG Repo, www.svgrepo.com, Transformed by: SVG Repo Mixer Tools -->
<svg height="800px" width="800px" version="1.1" id="Layer_1" xmlns="http://www.w3.org/2000/svg" xmlns:xlink="http://www.w3.org/1999/xlink" viewBox="0 0 512 512" xml:space="preserve" fill="#ffffff">
<g id="SVGRepo_bgCarrier" stroke-width="0"/>
<g id="SVGRepo_tracerCarrier" stroke-linecap="round" stroke-linejoin="round"/>
<g id="SVGRepo_iconCarrier"> <g> <path style="fill:#ffffff;" d="M330.142,180.039c-8.759,0-15.861-7.101-15.861-15.861V52.278c0-6.283-5.111-11.393-11.393-11.393 h-51.015c-6.283,0-11.395,5.111-11.395,11.393v103.536c0,8.76-7.103,15.861-15.861,15.861c-8.759,0-15.861-7.101-15.861-15.861 V52.278c0-23.775,19.341-43.116,43.118-43.116h51.015c23.773,0,43.116,19.341,43.116,43.116v111.899 C346.003,172.938,338.901,180.039,330.142,180.039z"/> <path style="fill:#ffffff;" d="M385.211,425.541H215.619c-69.92,0-126.804-56.884-126.804-126.804V79.142 c0-23.718,19.295-43.013,43.012-43.013h337.161c23.716,0,43.012,19.295,43.012,43.013v65.037c0,8.76-7.103,15.861-15.861,15.861 s-15.861-7.101-15.861-15.861V79.142c0-6.226-5.063-11.29-11.289-11.29H131.826c-6.226,0-11.289,5.065-11.289,11.29v219.594 c0,52.428,42.655,95.082,95.082,95.082h169.592c52.419,0,95.066-42.647,95.066-95.066v-67.335c0-8.76,7.103-15.861,15.861-15.861 S512,222.657,512,231.417v67.335C512,368.665,455.124,425.541,385.211,425.541z"/> <path style="fill:#ffffff;" d="M103.396,320.841c-4.061,0-8.118-1.548-11.216-4.646l-63.949-63.949 C10.024,234.041,0,209.836,0,184.091c0-53.149,43.238-96.387,96.387-96.387c8.759,0,15.861,7.101,15.861,15.861 s-7.103,15.861-15.861,15.861c-35.657-0.002-64.664,29.007-64.664,64.664c0,17.273,6.725,33.51,18.939,45.725l63.949,63.949 c6.194,6.194,6.194,16.237,0,22.433C111.514,319.293,107.455,320.841,103.396,320.841z"/> </g> <path style="fill:#000000;" d="M194.709,486.977h211.397c21.473,0,38.881-17.408,38.881-38.881l0,0 c0-21.473-17.408-38.881-38.881-38.881H194.709c-21.473,0-38.881,17.408-38.881,38.881l0,0 C155.828,469.569,173.236,486.977,194.709,486.977z"/> <path style="fill:#ffffff;" d="M406.106,502.838H194.709c-30.184,0-54.743-24.557-54.743-54.743 c0-30.186,24.557-54.743,54.743-54.743h211.397c30.186,0,54.744,24.557,54.744,54.743 C460.85,478.282,436.292,502.838,406.106,502.838z M194.709,425.076c-12.692,0-23.02,10.327-23.02,23.02 c0,12.692,10.327,23.02,23.02,23.02h211.397c12.694,0,23.021-10.327,23.021-23.02c0-12.692-10.327-23.02-23.021-23.02H194.709z"/> <polygon style="fill:#000000;" points="244.408,153.696 204.825,153.696 170.688,201.282 170.688,277.417 278.546,277.417 278.546,201.282 "/> <path style="fill:#ffffff;" d="M278.545,293.278H170.687c-8.759,0-15.861-7.101-15.861-15.861v-76.135 c0-3.317,1.039-6.551,2.974-9.246l34.137-47.586c2.979-4.153,7.775-6.616,12.887-6.616h39.582c5.112,0,9.909,2.463,12.887,6.616 l34.137,47.586c1.935,2.695,2.974,5.929,2.974,9.246v76.135C294.406,286.177,287.305,293.278,278.545,293.278z M186.548,261.555 h76.135v-55.173l-26.417-36.826h-23.299l-26.417,36.826v55.173H186.548z"/> </g>
</svg>